<svg width="25" height="28" viewBox="0 0 25 28" fill="none" xmlns="http://www.w3.org/2000/svg">
<path d="M19.6837 8.57443C19.6837 6.59234 18.8963 4.69143 17.4948 3.28988C16.0932 1.88833 14.1923 1.10095 12.2102 1.10095C10.2281 1.10095 8.32722 1.88833 6.92567 3.28988C5.52412 4.69143 4.73674 6.59234 4.73674 8.57443C4.73674 17.2935 1 19.7846 1 19.7846H23.4204C23.4204 19.7846 19.6837 17.2935 19.6837 8.57443Z" stroke="black" stroke-width="2" stroke-linecap="round" stroke-linejoin="round"/>
<path d="M14.3651 24.767C14.1461 25.1445 13.8318 25.4578 13.4536 25.6757C13.0754 25.8935 12.6466 26.0081 12.2102 26.0081C11.7738 26.0081 11.345 25.8935 10.9668 25.6757C10.5887 25.4578 10.2743 25.1445 10.0554 24.767" stroke="black" stroke-width="2" stroke-linecap="round" stroke-linejoin="round"/>
</svg>
