<svg xmlns="http://www.w3.org/2000/svg" viewBox="0 0 924.27 374.19"><g id="Capa_2" data-name="Capa 2"><g id="Capa_1-2" data-name="Capa 1"><path d="M814.86,51.32c0,1.71-.11,3.42-.11,5.14q0,58.29,0,116.59c0,7.32.88,6.3-6.35,6.35-7,0-14.08,0-21.11,0-1.12,0-2.24,0-3.36,0a1.43,1.43,0,0,1-1.54-1.44c-.06-1.12-.06-2.24-.06-3.36V28.22a45.8,45.8,0,0,1,.92-11c.27-1.09.52-2.18.86-3.24C786.86,5.42,792.69.77,801.65.15a27.76,27.76,0,0,1,23,8.67A58.1,58.1,0,0,1,834,22.12c2.71,5.08,5.31,10.21,8,15.31L887.82,126c.71,1.36,1.49,2.67,2.36,4.24,1.08-1.26.71-2.4.71-3.41q0-25.44,0-50.86V7.79c0-1.44,0-2.88.07-4.32A1.46,1.46,0,0,1,892.49,2c.32,0,.64,0,1,0H920.8l1,0c.9.07,1.51.49,1.55,1.44.05,1.12.07,2.24.07,3.36q0,73.17,0,146.34a47.56,47.56,0,0,1-1.71,13.74c-2.44,8.2-7.78,13-16.35,14-9.81,1.15-18.37-1.39-25.08-9a71.39,71.39,0,0,1-9.65-14.83q-15.83-30.68-31.66-61.34Q828.48,75.52,818,55.3c-.72-1.39-1.48-2.75-2.23-4.13Z"/><path d="M468,90.68q0-40.29,0-80.57c0-5,0-5.13,5-5.92,9.62-1.53,19.29-2.69,29-3.33,9.42-.62,18.83-.93,28.27-.75A127.62,127.62,0,0,1,560.18,3.9a57.88,57.88,0,0,1,21.4,10.37,44,44,0,0,1,11.94,14.19A80.56,80.56,0,0,1,601.9,54.8c2.76,18.6,2.46,37.3,1.65,56a125.57,125.57,0,0,1-3.41,24.66,87.14,87.14,0,0,1-4.52,13.11c-5.36,12.64-14.85,20.94-27.3,26.13a77.79,77.79,0,0,1-18.5,4.81A186.15,186.15,0,0,1,514,181c-10.38-.45-20.75-1-31.05-2.42-4.27-.6-8.53-1.26-12.79-1.94-1.83-.3-2-.58-2.1-2.54,0-1.28,0-2.56,0-3.84Zm100.06-1a201.91,201.91,0,0,0-.76-21.62c-.64-7.85-1.95-15.44-6.28-22.37A28.05,28.05,0,0,0,545.7,33.43C532.63,29,519.33,29,505.88,30.66c-1.53.19-1.73.5-1.8,2.23-.05,1.12,0,2.24,0,3.36V145.19c0,1,0,1.93,0,2.88.07,2.25.22,2.39,2.39,2.72a99.54,99.54,0,0,0,22,.71,66.65,66.65,0,0,0,20-4.63,20.17,20.17,0,0,0,8.61-5.91c4.88-6.08,8.43-12.73,9.42-20.65A233.21,233.21,0,0,0,568.06,89.71Z"/><path d="M305.86,90.4c-.2,10.28-.27,20.2-1.5,30.05A121,121,0,0,1,299,144.73c-6.26,18.4-19.13,29.41-37.81,33.8A117.66,117.66,0,0,1,226.88,181a97,97,0,0,1-21.28-3.22c-17-4.92-28.65-15.57-34.55-32.36a117.21,117.21,0,0,1-5.76-26.63c-1.64-15.31-1.56-30.66-.83-46,.53-11.35,2-22.6,5.48-33.49.39-1.22.76-2.45,1.19-3.65C177.4,18.12,189.81,7.38,207.71,3,220.4-.14,233.32-.52,246.3.51a88.64,88.64,0,0,1,18.84,3.28C281,8.6,292.1,18.56,298.09,34.1a112.25,112.25,0,0,1,6.3,27C305.6,71,305.64,80.86,305.86,90.4Zm-36.54.21c-.16-7.55-.26-15.23-.53-22.9A62.45,62.45,0,0,0,265,47.52c-2.71-7.13-7.19-12.81-14.79-15.32a47.26,47.26,0,0,0-31.51.34,17.22,17.22,0,0,0-6.53,3.91,30.29,30.29,0,0,0-8.49,14.23,91,91,0,0,0-2.84,19.41q-.6,20.64,0,41.27a90.43,90.43,0,0,0,2.66,18.48,31.68,31.68,0,0,0,7.15,13.38,18.07,18.07,0,0,0,7.78,5.41,47.92,47.92,0,0,0,32.89,0,16,16,0,0,0,6.12-3.68c3.78-3.78,6.88-8,8.31-13.26a77.67,77.67,0,0,0,3-18.41C269,105.77,269.16,98.26,269.32,90.61Z"/><path d="M134.39,116.4q0,14.86,0,29.74A51.58,51.58,0,0,1,132.91,158c-2.21,9.42-8.32,15.26-17,18.6a62.31,62.31,0,0,1-17.76,3.78c-8.93.65-17.87,1.07-26.83.83a124.86,124.86,0,0,1-28.47-3.58c-18-4.69-29.78-16-36-33.38a110.74,110.74,0,0,1-5.6-27.16,288.79,288.79,0,0,1,0-53.17A113.71,113.71,0,0,1,6.79,36.75a55.48,55.48,0,0,1,7.48-14.41A45.45,45.45,0,0,1,35.18,6.11,88.23,88.23,0,0,1,57,1C69.16-.37,81.29,0,93.43.68a279.85,279.85,0,0,1,29.05,3.21c2,.33,4.09.73,6.13,1.09a1.67,1.67,0,0,1,1.52,2c-.57,5.41-1.16,10.81-1.74,16.21-.29,2.7-.59,5.41-.91,8.1a1.58,1.58,0,0,1-2,1.52c-4.93-.55-9.84-1.21-14.78-1.6a317.66,317.66,0,0,0-34.49-1.18c-7.91.24-15.54,1.72-22.61,5.53A23,23,0,0,0,46,42,37.09,37.09,0,0,0,39.2,56.64a103.59,103.59,0,0,0-2.22,19c-.36,12.3-.47,24.61.38,36.92a86,86,0,0,0,2.86,16c1.48,5.58,4.86,10,8.76,14.08a15.83,15.83,0,0,0,3.93,2.69A45.61,45.61,0,0,0,71.58,151a75,75,0,0,0,16.74-.16,27.31,27.31,0,0,0,4.66-1,9.86,9.86,0,0,0,6.91-8.4,30.54,30.54,0,0,0,.3-4.78q0-12.48,0-24.95c0-.8,0-1.6-.08-2.39a1.43,1.43,0,0,0-1.58-1.4c-1.12,0-2.23,0-3.35,0H76c-1.12,0-2.24,0-3.35-.07a1.37,1.37,0,0,1-1.39-1.56c0-.48,0-1,0-1.44V83.14c0-.48,0-1,0-1.44.06-1.2.79-1.65,1.88-1.68l2.4,0h54.68c.48,0,1,0,1.44,0,2.47.09,2.71.26,2.71,2.81Q134.43,99.61,134.39,116.4Z"/><path d="M746.45,3.23c.54,1.38.29,2.84.3,4.26,0,6.08,0,12.16,0,18.23,0,1,0,1.92,0,2.88-.08,1.69-.37,2-1.92,2.1-1.28.06-2.56,0-3.84,0H696.37a57.09,57.09,0,0,0-11.45.92c-6.19,1.24-9.91,4.82-11.16,11a30.45,30.45,0,0,0-.72,5.69c-.11,8-.13,16-.13,24,0,2.2.28,2.44,2.5,2.47,3.36,0,6.71,0,10.07,0q26.38,0,52.77,0c1.56,0,3.18-.35,4.84.47.07.89.21,1.83.21,2.77q0,10.8,0,21.59c0,.8,0,1.6-.08,2.4a1.41,1.41,0,0,1-1.57,1.4c-1.28,0-2.56,0-3.84,0q-29.75,0-59.48,0c-6.16,0-5.41-.7-5.44,5.27,0,7,0,14.07,0,21.11a47.69,47.69,0,0,0,.83,8.58c1.22,6.49,5.24,10,11.52,11.22a61,61,0,0,0,11.46.95q22.31,0,44.61,0c1.28,0,2.56,0,3.84.05a1.42,1.42,0,0,1,1.53,1.46c0,.48,0,1,0,1.43,0,7.36,0,14.72,0,22.07,0,2.69-.13,2.79-2.62,2.91-20,1-40,1.49-59.94,1a104.43,104.43,0,0,1-18.07-2.16A42.91,42.91,0,0,1,649.64,170a25.59,25.59,0,0,1-8.43-10.85c-3-6.69-4.07-13.75-4.3-21,0-1.12,0-2.24,0-3.36q0-44.13,0-88.28c0-6.57.4-13.12,2.53-19.41A60.42,60.42,0,0,1,642.27,20a23.34,23.34,0,0,1,8.18-9.23A46.45,46.45,0,0,1,670.38,3a140.19,140.19,0,0,1,16.24-1.35q28.3-.48,56.58,1C744.29,2.71,745.45,2.53,746.45,3.23Z"/><path d="M445.41,178.48c-4.46.24-9.07.56-13.69.72-15,.5-30.06.72-45.09.38a108.66,108.66,0,0,1-18.08-2.11,42.44,42.44,0,0,1-16.91-7.62,24.24,24.24,0,0,1-7.79-9.58,53.71,53.71,0,0,1-4.81-20.4c-.1-1.91-.07-3.84-.07-5.75q0-63.34,0-126.69c0-6.07-.67-5.47,5.27-5.48q13,0,25.91,0c.8,0,1.6,0,2.4,0,2.33.08,2.54.26,2.61,2.41.05,1.44,0,2.88,0,4.32q0,57.59,0,115.16c0,3.36.09,6.72.2,10.08a24.36,24.36,0,0,0,.39,3.81c1.39,7.36,5.4,11.1,12.83,12.15a83.12,83.12,0,0,0,11.48.76c13.91,0,27.83,0,41.74,0,4.2,0,4.22-.19,4.2,4.2,0,6.56,0,13.11,0,19.67C446,175.76,446.28,177.07,445.41,178.48Z"/><path d="M720.41,323.39h15.83c1.12,0,2.24,0,3.36-.05,1.8-.15,2.36-1.18,1.8-3a12.58,12.58,0,0,0-3.3-5.2,21.81,21.81,0,0,0-8.11-5,160,160,0,0,0-16-4.85,114,114,0,0,1-19.49-6.58,66.25,66.25,0,0,1-6.79-3.54,26.87,26.87,0,0,1-12-15c-.14-.45-.33-.9-.45-1.36A2.28,2.28,0,0,0,672.7,277l-10.07,0c-1.28,0-2.57,0-3.83-.08a2.79,2.79,0,0,1-2.8-2.72,2.73,2.73,0,0,1,2.84-2.64q4.32,0,8.63,0a27.09,27.09,0,0,0,3.83-.14,4,4,0,0,0,3.49-3.94,3.8,3.8,0,0,0-3.73-3.63c-.95-.09-1.91,0-2.87,0H654.75a21.08,21.08,0,0,1-2.87-.08,3.6,3.6,0,0,1,0-7.2,28.94,28.94,0,0,1,3.36-.07c6.56,0,13.11-.1,19.67,0,2.14.05,3.07-.79,3.89-2.64,5.54-12.53,14.84-21.4,27-27.42a78,78,0,0,1,28-7.61,98.13,98.13,0,0,1,19.16.09,46.16,46.16,0,0,1,18.61,5.82,29.56,29.56,0,0,1,10.07,9.41c4.18,6.38,5.5,13.37,3.35,20.62-2.23,7.54-7.11,12.78-15.17,14.36a16.07,16.07,0,0,1-3.8.07,7,7,0,0,1-6.52-4.85,44.2,44.2,0,0,1-2.2-7.33,30.46,30.46,0,0,0-3.81-9.78,12.4,12.4,0,0,0-7.85-5.89c-11.73-2.68-22.88-1.57-33,5.54a20.31,20.31,0,0,0-7.89,10c-2,5.77-.56,10.25,4.38,13.9a30.64,30.64,0,0,0,9.43,4.61c4.58,1.39,9.19,2.7,13.8,4a163.18,163.18,0,0,1,20,6.68,48.93,48.93,0,0,1,10.79,6.17c7.94,6.09,11.11,14.29,10.05,24-2.11,19.33-11.75,34.2-27.72,45-10.52,7.12-22.3,10.89-34.9,12.29a94,94,0,0,1-22.49-.12,54.45,54.45,0,0,1-17-4.84c-14.84-7.16-20.77-24.87-17.29-38,2.08-7.85,9.63-14.27,17.35-14.05,4.19.11,6.92,2,8.49,5.79,1.12,2.7,1.23,5.61,1.75,8.43.44,2.35.76,4.74,1.37,7,1.94,7.38,6.8,12,14.22,13.25,11.74,2,22.94.38,33-6.55A27.7,27.7,0,0,0,739.94,333c1.44-3.19.92-4.09-2.52-4.1-11-.05-22.07,0-33.11,0a30.43,30.43,0,0,1-3.82-.15,2.76,2.76,0,0,1-2.45-2.55,2.73,2.73,0,0,1,2.7-2.74c1.11-.1,2.24-.06,3.36-.06Z"/><path d="M576.4,335.66c-8.79,0-17.59.07-26.38,0a5.13,5.13,0,0,0-5,2.74c-4.29,6.93-8.77,13.74-13.22,20.56a96.28,96.28,0,0,1-7.42,10,14.89,14.89,0,0,1-10,5.16c-8.36,1-14.26-5.74-12.11-13.86.36-1.38,1-2.68,1.48-4.05a1.55,1.55,0,0,0-1.48-2c-1.27-.07-2.55,0-3.83-.05s-2.57.07-3.84,0a4.77,4.77,0,0,1-4.64-4.59,4.7,4.7,0,0,1,4.59-4.64c2.22-.19,4.47-.07,6.71-.07,2.56,0,5.11.05,7.67,0,2.38-.08,3.58-1.09,3.66-2.91.1-2.2-1.71-3.36-3.83-3.26-1.12.06-2.24,0-3.36,0H490.57a10.44,10.44,0,0,1-4.25-.56,5.59,5.59,0,0,1,1-10.65,24.4,24.4,0,0,1,3.83-.15c8.47,0,16.94.06,25.41,0,7.34-.07,5.1,1.24,9.4-5.17,7.67-11.4,15.21-22.89,22.8-34.34q3.32-5,6.6-10a15.77,15.77,0,0,0,1.46-2.46,2.1,2.1,0,0,0-1.8-3.1c-1.12-.09-2.24-.05-3.36-.05-6.71,0-13.43,0-20.14,0a22.08,22.08,0,0,1-3.82-.2,4.29,4.29,0,0,1-3.6-4.42,4.39,4.39,0,0,1,3.67-4.38,25.54,25.54,0,0,1,3.82-.14c9.27,0,18.55-.15,27.81.06,4.18.1,6.87-1.49,9.06-4.95,4.61-7.28,9.49-14.41,14.26-21.59a62.85,62.85,0,0,1,8-10.13c4.71-4.66,10.24-7.61,17-7.9a33,33,0,0,1,5.25.24c5.63.66,9.26,3.81,11.26,9.08,1.72,4.56,1.92,9.37,2.47,14.12,1.26,10.95,2.41,21.91,3.62,32.87q1.57,14.29,3.2,28.58c1.16,10.32,2.36,20.64,3.5,31,.58,5.24,1.08,10.49,1.56,15.74a40.31,40.31,0,0,1,.1,4.79,20,20,0,0,1-16.4,19.11,13.36,13.36,0,0,1-6.16-.26,8,8,0,0,1-5.53-4.9,22.26,22.26,0,0,1-1.11-4.15c-1.59-8.17-2.09-16.48-2.78-24.75-.35-4.23-.3-4.24-4.44-4.2H576.4Zm23.61-84a9.54,9.54,0,0,0-1.18,1.1q-18.24,28.95-36.47,57.9c-.34.54-.7,1.07-.21,1.84a7.34,7.34,0,0,0,1.24.19h38.3c.48,0,1,0,1.43,0,1.19-.1,1.59-.57,1.56-1.9,0-1.11-.14-2.23-.22-3.34-.5-6.36-1-12.72-1.51-19.09-.77-10.5-1.49-21-2.27-31.51C600.57,255.27,600.28,253.7,600,251.68Z"/><path d="M506.11,244.52H480.69c-1.12,0-2.24,0-3.36,0-1.8.08-2,.29-2.66,2.12-.05.15-.1.31-.14.46q-4.63,16.61-9.26,33.22c-.68,2.46-.5,2.69,2.18,2.7q13.68,0,27.34,0c6.08,0,12.15,0,18.23,0a22.8,22.8,0,0,1,5.23.49c4.25,1.08,6.41,4.27,5.79,8.63-1.12,7.76-6.24,11.84-11.66,13.1a32.94,32.94,0,0,1-7.62.73q-21.09,0-42.2,0c-4.49,0-4.31-.8-5.73,4.35-4,14.62-8.2,29.21-12.3,43.81a37.21,37.21,0,0,1-4.62,11A19.62,19.62,0,0,1,426.74,374a14,14,0,0,1-6.17-.28,9,9,0,0,1-6.84-6.66c-.25-.93-.42-1.88-.68-2.8a1.73,1.73,0,0,0-1.76-1.32q-1.68-.06-3.36-.06H391.62a17,17,0,0,1-2.86-.13,3.74,3.74,0,0,1-.16-7.28,16.89,16.89,0,0,1,3.34-.17c6.56,0,13.11,0,19.67,0,2.7,0,3-.24,3.74-2.73s1.54-5.2,2.18-7.84a12.75,12.75,0,0,0,.37-3.79,5.23,5.23,0,0,0-4.57-4.8,28.78,28.78,0,0,0-3.83-.1H380.24a26.88,26.88,0,0,1-3.36-.07,5.65,5.65,0,0,1,.09-11.26,30.53,30.53,0,0,1,3.83-.08h35.5c6.25,0,7.08-.63,8.73-6.49Q430,300.53,434.85,283c.26-.92.56-1.83.79-2.76.4-1.58.05-2.13-1.5-2.15-3.52-.05-7,0-10.55,0a23.07,23.07,0,0,1-3.82-.2,4.53,4.53,0,0,1,.57-9c2.87-.15,5.75-.06,8.63-.07,2.08,0,4.16.07,6.23,0,3.05-.13,4.88-2.1,5.05-5.28a5.26,5.26,0,0,0-4.65-5.24,32.55,32.55,0,0,0-3.83-.09H406.83a20.22,20.22,0,0,1-3.82-.17,4.6,4.6,0,0,1,.17-9.07,25.54,25.54,0,0,1,3.82-.13h30.22a30.52,30.52,0,0,0,3.83-.1,5.22,5.22,0,0,0,4.67-5.67,5,5,0,0,0-4.88-5c-4-.19-8-.09-12-.1-1.44,0-2.88,0-4.32,0a8.74,8.74,0,0,1-2.33-.39,2.75,2.75,0,0,1-1.76-3.06,2.46,2.46,0,0,1,2.07-2.33,24.23,24.23,0,0,1,3.81-.25c6.71,0,13.43-.08,20.14,0,2.26,0,3.85-.46,5.17-2.52,3.68-5.73,9.43-7.85,15.91-8.43,1.27-.12,2.55-.09,3.83-.09H539a25.27,25.27,0,0,1,6.64.67c4.83,1.29,6.13,5.09,5.78,8.68a15.53,15.53,0,0,1-12.28,13.65,33.5,33.5,0,0,1-7.14.68C523.37,244.49,514.74,244.51,506.11,244.52Z"/><path d="M864.77,220.85h46.07a23.08,23.08,0,0,1,7.11.77c4.65,1.48,6.95,5.14,6.17,9.95a17,17,0,0,1-14.39,14.13,46.71,46.71,0,0,1-6.7.36c-8.63,0-17.27,0-25.91,0-1,0-1.92,0-2.87,0a2,2,0,0,0-2.07,1.63c-.3.91-.53,1.84-.79,2.77q-14.31,51-28.64,101.95a74.28,74.28,0,0,1-3.07,9.06,20.65,20.65,0,0,1-9,10.27A16.38,16.38,0,0,1,819.61,374c-5.43-1-8.37-4.38-8.55-9.91,0-1.44.11-2.88.07-4.32a2.36,2.36,0,0,0-2-2.31,34.84,34.84,0,0,0-3.83-.13H768.79a28.73,28.73,0,0,1-3.83-.15,3.28,3.28,0,0,1-2.71-2.94,3.4,3.4,0,0,1,2.54-3.6,21,21,0,0,1,3.81-.2h38.87c1.12,0,2.24,0,3.36,0,2.63-.1,3-.36,3.7-2.82q5.44-19.38,10.85-38.77A22,22,0,0,0,826,306a.89.89,0,0,0-.75-1,28.48,28.48,0,0,0-3.33-.2c-7.67,0-15.35,0-23,0a25.59,25.59,0,0,1-3.82-.18,3.44,3.44,0,0,1-2.82-3.38,3.54,3.54,0,0,1,2.53-3.16,20,20,0,0,1,3.8-.28c7.36,0,14.71,0,22.07,0,1.12,0,2.24,0,3.36,0,3.24-.23,4.86-1.57,5.8-4.73a6,6,0,0,0-4.88-7.8,27.1,27.1,0,0,0-3.83-.12H795.14a20.77,20.77,0,0,1-3.35-.11,4.65,4.65,0,0,1-4-5.12,4.56,4.56,0,0,1,4.38-4.27c1.27-.12,2.56,0,3.84,0H829.6c1.12,0,2.24,0,3.36,0,1.37,0,1.92-.7,2.26-1.94,1.83-6.62,3.78-13.21,5.57-19.84.61-2.29,1.64-4.5,1.64-6.94-2.39-1.31-5-.6-7.46-.64-7.67-.1-15.35,0-23-.05a37.83,37.83,0,0,1-6.21-.41c-5-.91-7.4-4.19-7.12-9.2.37-6.62,5.32-12.65,12-14.63a28.41,28.41,0,0,1,8.06-1C834.07,220.87,849.42,220.85,864.77,220.85Z"/><path d="M352.48,329.8a6.78,6.78,0,0,1,6.82-6.59A6.56,6.56,0,0,1,366,330.3a6.82,6.82,0,0,1-7,6.45A7,7,0,0,1,352.48,329.8Z"/><path d="M374,363a4.56,4.56,0,0,1-4.6-4.94,4.8,4.8,0,0,1,4.56-4.61,5.08,5.08,0,0,1,4.94,4.81A4.81,4.81,0,0,1,374,363Z"/><path d="M384,254.44a4.75,4.75,0,0,1,4.89-4.8,5,5,0,0,1,4.69,4.57,4.85,4.85,0,0,1-4.71,5A4.68,4.68,0,0,1,384,254.44Z"/><path d="M412.52,273.31a4,4,0,0,1-8,.15,4,4,0,0,1,8-.15Z"/><path d="M411.66,231.26a3.48,3.48,0,0,1,3.42,3.73,3.63,3.63,0,1,1-7.24-.43A3.44,3.44,0,0,1,411.66,231.26Z"/></g></g></svg>